<svg xmlns="http://www.w3.org/2000/svg" viewBox="0 0 720 640" fill="none">
  <defs>
    <linearGradient id="g1" x1="0" y1="0" x2="1" y2="1">
      <stop stop-color="#1E3A8A"/>
      <stop offset=".5" stop-color="#2563EB"/>
      <stop offset="1" stop-color="#22D3EE"/>
    </linearGradient>
    <linearGradient id="light" x1="360" y1="80" x2="360" y2="560" gradientUnits="userSpaceOnUse">
      <stop stop-color="#67E8F9"/>
      <stop offset="1" stop-color="#06B6D4"/>
    </linearGradient>
    <filter id="blur" x="-50%" y="-50%" width="200%" height="200%">
      <feGaussianBlur stdDeviation="35"/>
    </filter>
    <filter id="shadow" x="-20%" y="-20%" width="140%" height="140%">
      <feDropShadow dx="0" dy="12" stdDeviation="16" flood-color="#2563EB" flood-opacity=".12"/>
    </filter>
  </defs>

  <circle cx="360" cy="300" r="120" fill="#22D3EE" opacity=".08" filter="url(#blur)"/>
  <circle cx="520" cy="140" r="80" fill="#2563EB" opacity=".1" filter="url(#blur)"/>

  <g filter="url(#shadow)">
    <rect x="56" y="220" width="160" height="200" rx="20" fill="#ffffff" stroke="#e2e8f0" stroke-width="2"/>
    <rect x="76" y="248" width="120" height="12" rx="6" fill="#e2e8f0"/>
    <rect x="76" y="272" width="88" height="12" rx="6" fill="#f1f5f9"/>
    <rect x="76" y="308" width="120" height="80" rx="12" fill="#f8fafc" stroke="#e2e8f0"/>
    <path d="M92 340h88M92 360h64M92 380h72" stroke="#94a3b8" stroke-width="6" stroke-linecap="round"/>
    <text x="96" y="210" fill="#64748b" font-family="Inter,sans-serif" font-size="13" font-weight="600">DATA IN</text>
  </g>

  <g filter="url(#shadow)">
    <circle cx="360" cy="320" r="72" fill="#ffffff" stroke="url(#light)" stroke-width="3"/>
    <circle cx="360" cy="320" r="48" fill="url(#g1)" opacity=".9"/>
    <circle cx="360" cy="320" r="20" fill="#E0F2FE"/>
    <path d="M300 320h24M396 320h24M360 264v24M360 356v24" stroke="url(#light)" stroke-width="3" stroke-linecap="round" opacity=".8"/>
    <path d="M318 302l12 12M390 374l12 12M402 302l-12 12M330 374l-12 12" stroke="url(#light)" stroke-width="2.5" stroke-linecap="round" opacity=".6"/>
    <text x="318" y="418" fill="#06B6D4" font-family="Inter,sans-serif" font-size="14" font-weight="700" letter-spacing="2">NEXUS</text>
  </g>

  <g filter="url(#shadow)">
    <rect x="248" y="108" width="224" height="88" rx="18" fill="#ffffff" stroke="url(#g1)" stroke-width="2"/>
    <text x="272" y="142" fill="#0891b2" font-family="Inter,sans-serif" font-size="13" font-weight="700">AI LOGIC</text>
    <path d="M272 162h176M272 178h120" stroke="#cbd5e1" stroke-width="8" stroke-linecap="round"/>
  </g>

  <g filter="url(#shadow)">
    <rect x="504" y="220" width="160" height="200" rx="20" fill="#ffffff" stroke="#e2e8f0" stroke-width="2"/>
    <rect x="524" y="240" width="120" height="140" rx="16" fill="#f8fafc" stroke="url(#g1)" stroke-width="2"/>
    <rect x="544" y="260" width="80" height="10" rx="5" fill="url(#g1)"/>
    <rect x="544" y="280" width="60" height="10" rx="5" fill="#e2e8f0"/>
    <rect x="544" y="308" width="80" height="48" rx="10" fill="#ecfeff"/>
    <circle cx="584" cy="332" r="14" fill="url(#g1)" opacity=".5"/>
    <text x="544" y="210" fill="#64748b" font-family="Inter,sans-serif" font-size="13" font-weight="600">APP OUT</text>
  </g>

  <path d="M216 320h56" stroke="url(#g1)" stroke-width="3" stroke-linecap="round"/>
  <path d="M432 320h72" stroke="url(#g1)" stroke-width="3" stroke-linecap="round"/>
  <path d="M360 196v44" stroke="url(#light)" stroke-width="3" stroke-linecap="round"/>
  <path d="M360 392v44" stroke="url(#g1)" stroke-width="2" stroke-linecap="round" opacity=".5"/>

  <circle cx="248" cy="320" r="5" fill="#22D3EE"/>
  <circle cx="472" cy="320" r="5" fill="#2563EB"/>
  <circle cx="360" cy="240" r="5" fill="#06B6D4"/>
</svg>
