<svg xmlns="http://www.w3.org/2000/svg" viewBox="0 0 640 520" fill="none">
  <defs>
    <linearGradient id="panel" x1="0" y1="0" x2="1" y2="1">
      <stop stop-color="#1E293B"/>
      <stop offset="1" stop-color="#0F172A"/>
    </linearGradient>
    <linearGradient id="accent" x1="0" y1="0" x2="1" y2="0">
      <stop stop-color="#6366F1"/>
      <stop offset="1" stop-color="#22D3EE"/>
    </linearGradient>
    <filter id="glow" x="-20%" y="-20%" width="140%" height="140%">
      <feGaussianBlur stdDeviation="18" result="b"/>
      <feMerge><feMergeNode in="b"/><feMergeNode in="SourceGraphic"/></feMerge>
    </filter>
  </defs>
  <ellipse cx="500" cy="90" rx="120" ry="80" fill="#6366F1" opacity=".18" filter="url(#glow)"/>
  <ellipse cx="120" cy="420" rx="100" ry="70" fill="#22D3EE" opacity=".14" filter="url(#glow)"/>
  <rect x="72" y="56" width="496" height="360" rx="28" fill="url(#panel)" stroke="#334155" stroke-width="2"/>
  <rect x="72" y="56" width="496" height="52" rx="28" fill="#111827"/>
  <circle cx="104" cy="82" r="7" fill="#EF4444"/>
  <circle cx="128" cy="82" r="7" fill="#F59E0B"/>
  <circle cx="152" cy="82" r="7" fill="#22C55E"/>
  <rect x="104" y="132" width="180" height="12" rx="6" fill="#334155"/>
  <rect x="104" y="156" width="240" height="12" rx="6" fill="#475569"/>
  <rect x="104" y="196" width="420" height="88" rx="16" fill="#0B1220" stroke="#1E293B"/>
  <path d="M124 236h80M124 256h140M124 276h100" stroke="url(#accent)" stroke-width="8" stroke-linecap="round"/>
  <rect x="104" y="308" width="128" height="88" rx="16" fill="#111827" stroke="#312E81"/>
  <rect x="248" y="308" width="128" height="88" rx="16" fill="#111827" stroke="#155E75"/>
  <rect x="392" y="308" width="132" height="88" rx="16" fill="#111827" stroke="#334155"/>
  <circle cx="168" cy="352" r="18" fill="#6366F1" opacity=".35"/>
  <circle cx="312" cy="352" r="18" fill="#22D3EE" opacity=".35"/>
  <circle cx="458" cy="352" r="18" fill="#A78BFA" opacity=".35"/>
  <path d="M500 148c36 24 56 58 56 96" stroke="url(#accent)" stroke-width="4" stroke-linecap="round"/>
  <circle cx="556" cy="244" r="34" fill="#1E1B4B" stroke="url(#accent)" stroke-width="3"/>
  <path d="M544 244l8 8 16-18" stroke="#22D3EE" stroke-width="4" stroke-linecap="round" stroke-linejoin="round"/>
  <rect x="430" y="132" width="96" height="56" rx="12" fill="#172554" stroke="#3B82F6" stroke-opacity=".5"/>
  <path d="M446 160h64M446 176h40" stroke="#93C5FD" stroke-width="6" stroke-linecap="round"/>
</svg>
