<svg xmlns="http://www.w3.org/2000/svg" viewBox="0 0 512 512" fill="none">
  <defs>
    <linearGradient id="noor" x1="256" y1="108" x2="256" y2="404" gradientUnits="userSpaceOnUse">
      <stop stop-color="#FFF7ED"/>
      <stop offset=".35" stop-color="#FDE68A"/>
      <stop offset="1" stop-color="#D97706"/>
    </linearGradient>
    <linearGradient id="core" x1="196" y1="316" x2="316" y2="196" gradientUnits="userSpaceOnUse">
      <stop stop-color="#6366F1"/>
      <stop offset="1" stop-color="#4338CA"/>
    </linearGradient>
    <linearGradient id="flow" x1="88" y1="256" x2="424" y2="256" gradientUnits="userSpaceOnUse">
      <stop stop-color="#22D3EE"/>
      <stop offset=".5" stop-color="#6366F1"/>
      <stop offset="1" stop-color="#FBBF24"/>
    </linearGradient>
    <radialGradient id="halo" cx="0" cy="0" r="1" gradientUnits="userSpaceOnUse" gradientTransform="translate(256 256) rotate(90) scale(120)">
      <stop stop-color="#FBBF24" stop-opacity=".35"/>
      <stop offset="1" stop-color="#FBBF24" stop-opacity="0"/>
    </radialGradient>
    <filter id="glow" x="-50%" y="-50%" width="200%" height="200%">
      <feGaussianBlur stdDeviation="10" result="b"/>
      <feMerge><feMergeNode in="b"/><feMergeNode in="SourceGraphic"/></feMerge>
    </filter>
  </defs>
  <rect width="512" height="512" rx="112" fill="#0B1220"/>
  <circle cx="256" cy="256" r="132" fill="url(#halo)"/>
  <g stroke="url(#noor)" stroke-linecap="round" stroke-width="8" opacity=".85">
    <path d="M256 124v36M256 352v36M124 256h36M352 256h36"/>
    <path d="M162 162l25 25M325 325l25 25M350 162l-25 25M187 325l-25 25"/>
  </g>
  <path d="M108 256h84" stroke="url(#flow)" stroke-width="10" stroke-linecap="round"/>
  <path d="M320 256h84" stroke="url(#flow)" stroke-width="10" stroke-linecap="round"/>
  <polygon points="200,256 184,246 184,266" fill="#22D3EE"/>
  <polygon points="312,256 328,246 328,266" fill="#FBBF24"/>
  <circle cx="108" cy="256" r="22" fill="#0F172A" stroke="#22D3EE" stroke-width="5"/>
  <circle cx="108" cy="256" r="7" fill="#22D3EE"/>
  <circle cx="256" cy="256" r="78" fill="url(#core)" filter="url(#glow)"/>
  <circle cx="256" cy="256" r="78" stroke="#A5B4FC" stroke-opacity=".4" stroke-width="3"/>
  <circle cx="256" cy="256" r="34" fill="url(#noor)"/>
  <circle cx="256" cy="256" r="12" fill="#FFFFFF"/>
  <path d="M236 256h40M256 236v40" stroke="#4338CA" stroke-width="4" stroke-linecap="round" opacity=".55"/>
  <circle cx="404" cy="256" r="22" fill="#0F172A" stroke="#FBBF24" stroke-width="5"/>
  <circle cx="404" cy="256" r="7" fill="#FBBF24"/>
</svg>
