<?xml version="1.0" encoding="utf-8"?>
<!-- Generator: Adobe Illustrator 20.1.0, SVG Export Plug-In . SVG Version: 6.00 Build 0)  -->
<svg version="1.0" id="Layer_1" xmlns="http://www.w3.org/2000/svg" xmlns:xlink="http://www.w3.org/1999/xlink" x="0px" y="0px"
	 viewBox="0 0 24 24" style="enable-background:new 0 0 24 24;" xml:space="preserve">
<style type="text/css">
	.st0{fill:none;}
	.st1{fill:#CCB696;}
</style>
<polygon class="st0" points="2.6,17.5 8.4,11.6 2.6,5.8 "/>
<path class="st0" d="M11.7,14.9l-2.6-2.6l-6.3,6.3h18.5L15,12.3l-2.6,2.6C12.1,15.1,11.9,15.1,11.7,14.9z"/>
<polygon class="st0" points="20.5,5.4 3.5,5.4 12,13.9 "/>
<polygon class="st0" points="15.6,11.6 21.4,17.5 21.4,5.8 15.2,12 "/>
<path class="st1" d="M21.9,4.5H2.1C1.8,4.5,1.6,4.7,1.6,5v14.1c0,0.3,0.2,0.5,0.5,0.5h19.8c0.3,0,0.5-0.2,0.5-0.5V4.9
	C22.4,4.7,22.1,4.5,21.9,4.5z M21.4,5.8v11.7l-5.8-5.8L15.2,12l-0.3,0.3l6.3,6.3H2.8l6.3-6.3l-0.7-0.7l-5.8,5.8V5.8V5.4h1h16.9h1
	v0.4H21.4z"/>
<path class="st1" d="M12.1,13.9L3.6,5.4h-1v0.4l5.8,5.8l0,0l0.7,0.7l0,0l2.6,2.6c0.2,0.2,0.5,0.2,0.7,0l2.6-2.6l0,0l0.3-0.3l6.2-6.2
	V5.4h-1L12.1,13.9z"/>
</svg>
