<?xml version="1.0" encoding="utf-8"?>
<!-- Generator: Adobe Illustrator 20.1.0, SVG Export Plug-In . SVG Version: 6.00 Build 0)  -->
<svg version="1.0" id="Layer_1" xmlns="http://www.w3.org/2000/svg" xmlns:xlink="http://www.w3.org/1999/xlink" x="0px" y="0px"
	 viewBox="0 0 24 24" style="enable-background:new 0 0 24 24;" xml:space="preserve">
<style type="text/css">
	.st0{fill:#CCB696;}
</style>
<g>
	<path class="st0" d="M11.6,19.5l4.8-7c1.8-2.4,1.5-6.4-0.6-8.5c-1.1-1.1-2.7-1.8-4.3-1.8S8.4,2.8,7.2,4C5.3,6.2,5,10.2,6.8,12.6
		L11.6,19.5z M7.8,4.5c1-1,2.4-1.6,3.8-1.6s2.8,0.6,3.8,1.6c1.9,1.9,2.1,5.5,0.5,7.7l-4.3,6.2l-4.3-6.2C5.7,10,5.9,6.4,7.8,4.5
		L7.8,4.5z"/>
	<path class="st0" d="M15.5,15.8c-0.2,0-0.3,0.1-0.4,0.3c0,0.2,0.1,0.3,0.3,0.4c3.3,0.4,5.1,1.4,5.1,2c0,0.9-3.4,2-8.8,2
		c-5.5,0-8.8-1.2-8.8-2c0-0.6,1.8-1.7,5.1-2c0.2,0,0.3-0.2,0.3-0.4s-0.2-0.3-0.4-0.3c-3.3,0.4-5.6,1.5-5.6,2.7
		c0,1.3,3.2,2.7,9.4,2.7s9.4-1.3,9.4-2.7C21.1,17.3,18.8,16.2,15.5,15.8L15.5,15.8z"/>
	<g id="XMLID_1_">
		<path id="XMLID_7_" class="st0" d="M9.7,6.4c0.6,0,0.4,0.6,0.5,1.1C10.4,8,10,8.7,9.4,8.7s-0.7-0.4-0.7-1C8.7,7.2,9,6.5,9.7,6.4
			L9.7,6.4z"/>
		<path id="XMLID_6_" class="st0" d="M12.8,5.3c0.4,0.5,0.1,0.9-0.4,1.9s-1.3,0.7-1.6,0.4c-0.3-0.3-0.5-1.2,0.1-1.6
			C11.6,5.6,12.2,4.7,12.8,5.3L12.8,5.3z"/>
		<path id="XMLID_5_" class="st0" d="M14,5.8c0.8,0,0.6,0.7,0.7,1.6c0.2,0.8-0.4,1.4-1.1,1.4c-0.7,0-1-0.7-0.8-1.4
			C13.1,6.7,13.3,5.8,14,5.8L14,5.8z"/>
		<path id="XMLID_4_" class="st0" d="M15.1,8.9c0.3,0.2,0.5,0.6-0.1,1.4c-0.4,0.7-1.2,0.9-1.6,0.3c-0.3-0.5-0.1-1,0.3-1.3
			C14.2,9.1,14.7,8.5,15.1,8.9L15.1,8.9z"/>
		<path id="XMLID_3_" class="st0" d="M9.6,11.2c-0.4-0.1-0.3,0-0.7-0.1c-0.6-0.3-0.6-1.5,0.5-1.6c1,0.2,1.4-0.9,2.2-0.7
			c0.9,0.1,1,0.8,1,1.4c0.1,0.8,0.9,1.1,0.7,1.8c-0.1,0.3-0.7,0.8-1.2,0.5c-0.2-0.2-0.4-0.4-0.6-0.4C11.2,12,11,12.2,10.6,12
			C10.1,11.8,10,11.3,9.6,11.2L9.6,11.2z"/>
	</g>
</g>
</svg>
