<?xml version="1.0" encoding="utf-8"?>
<!-- Generator: Adobe Illustrator 20.1.0, SVG Export Plug-In . SVG Version: 6.00 Build 0)  -->
<svg version="1.0" id="Layer_1" xmlns="http://www.w3.org/2000/svg" xmlns:xlink="http://www.w3.org/1999/xlink" x="0px" y="0px"
	 viewBox="0 0 24 24" style="enable-background:new 0 0 24 24;" xml:space="preserve">
<style type="text/css">
	.st0{fill:#CCB696;}
</style>
<g>
	<path class="st0" d="M22,18.4c-0.1-0.5-0.3-0.8-0.7-1.1l-4.6-2.7c-0.6-0.3-1.3-0.2-1.8,0.2L14,15.7c-0.2,0.2-0.6,0.3-0.9,0
		c-0.7-0.6-1.4-1.2-2.1-1.9s-1.3-1.4-1.9-2.1c-0.2-0.3-0.2-0.7,0.1-0.9l0.9-0.9c0.5-0.5,0.6-1.2,0.2-1.8L7.6,3.7
		C7.3,3.3,6.9,3,6.5,3C6,2.9,5.6,3.1,5.3,3.4L3.9,4.8c-1,1-1,2.7,0,5c0.9,2.1,2.6,4.5,4.7,6.7c2.1,2.1,4.5,3.8,6.7,4.7
		c1.1,0.5,2.1,0.7,2.9,0.7c0.9,0,1.6-0.2,2-0.7l1.4-1.4C21.9,19.3,22,18.9,22,18.4L22,18.4z M16.3,15.2l4.6,2.7
		c0.2,0.1,0.4,0.4,0.4,0.6s0,0.4-0.2,0.6L15,15.6l0.3-0.3C15.6,15.1,16,15,16.3,15.2L16.3,15.2z M6.4,3.6C6.7,3.6,6.9,3.8,7,4
		l2.7,4.6c0.2,0.3,0.1,0.7-0.1,1L9.3,9.9L5.8,3.7C5.9,3.6,6.1,3.5,6.4,3.6C6.3,3.6,6.4,3.6,6.4,3.6L6.4,3.6z M19.7,20.6
		c-0.8,0.8-2.3,0.7-4.3-0.1c-2.1-0.9-4.4-2.5-6.5-4.6s-3.7-4.4-4.6-6.5C3.6,7.5,3.6,6,4.3,5.2l1-1l3.5,6.2l-0.2,0.2
		c-0.5,0.5-0.5,1.2-0.1,1.7c0.6,0.7,1.2,1.5,1.9,2.2s1.4,1.3,2.2,1.9c0.5,0.4,1.2,0.4,1.7-0.1l0.2-0.2l6.2,3.5L19.7,20.6z"/>
</g>
</svg>
