<?xml version="1.0" encoding="utf-8"?>
<!-- Generator: Adobe Illustrator 20.1.0, SVG Export Plug-In . SVG Version: 6.00 Build 0)  -->
<svg version="1.0" id="Layer_1" xmlns="http://www.w3.org/2000/svg" xmlns:xlink="http://www.w3.org/1999/xlink" x="0px" y="0px"
	 viewBox="0 0 24 24" style="enable-background:new 0 0 24 24;" xml:space="preserve">
<style type="text/css">
	.st0{fill:#CCB696;}
</style>
<g>
	<path class="st0" d="M20.9,8.6c-1.6-3.4-5-5.7-8.8-5.8C8.2,2.7,4.6,5,3,8.6c-1.1,0.2-2,1.1-2,2.3v3.5c0,1.2,0.9,2.1,2,2.3
		c1.6,3.5,5.1,5.8,9,5.8s7.4-2.3,9-5.8c1.1-0.2,2-1.1,2-2.3v-3.5C22.9,9.7,22.1,8.7,20.9,8.6L20.9,8.6z M12.1,3.6
		c3.3,0.1,6.4,2,7.9,4.9H4C5.5,5.5,8.7,3.6,12.1,3.6L12.1,3.6z M12,21.6c-3.4,0-6.5-1.9-8-4.9h16C18.5,19.7,15.4,21.6,12,21.6
		L12,21.6z M22.1,14.4c0,0.8-0.7,1.5-1.5,1.5H3.3c-0.8,0-1.5-0.7-1.5-1.5v-3.5c0-0.8,0.7-1.5,1.5-1.5h17.3c0.8,0,1.5,0.7,1.5,1.5
		C22.1,10.9,22.1,14.4,22.1,14.4z"/>
	<path class="st0" d="M7.1,13.2L6.4,11h-1l-0.7,2.2L4,11H3l1.2,3.6h1l0.7-2l0.7,2h1.1L8.8,11h-1L7.1,13.2z"/>
	<path class="st0" d="M13.2,13.2L12.5,11h-1l-0.7,2.2L10.1,11H9l1.2,3.6h1l0.7-2l0.7,2h1.1l1.2-3.6h-1.1L13.2,13.2z"/>
	<path class="st0" d="M19.2,13.2L18.5,11h-1l-0.7,2.2L16.1,11h-1l1.2,3.6h1l0.7-2l0.7,2h1.1L21,11h-1L19.2,13.2z"/>
</g>
</svg>
